<svg xmlns="http://www.w3.org/2000/svg" xmlns:xlink="http://www.w3.org/1999/xlink" width="256" zoomAndPan="magnify" viewBox="0 0 192 74.999997" height="100" preserveAspectRatio="xMidYMid meet" version="1.2"><defs><clipPath id="b35973e5a3"><path d="M 5 9 L 43 9 L 43 63 L 5 63 Z M 5 9 "/></clipPath><clipPath id="e51cbf27fc"><path d="M 15.054688 1.085938 L 61.109375 17.074219 L 41.429688 73.757812 L -4.625 57.765625 Z M 15.054688 1.085938 "/></clipPath><clipPath id="eababc83d4"><path d="M 15.054688 1.085938 L 61.109375 17.074219 L 41.429688 73.757812 L -4.625 57.765625 Z M 15.054688 1.085938 "/></clipPath><clipPath id="e4bb241c95"><path d="M 3 8 L 53 8 L 53 67 L 3 67 Z M 3 8 "/></clipPath><clipPath id="736d35171d"><path d="M 15.054688 1.085938 L 61.109375 17.074219 L 41.429688 73.757812 L -4.625 57.765625 Z M 15.054688 1.085938 "/></clipPath><clipPath id="43d0925702"><path d="M 15.054688 1.085938 L 61.109375 17.074219 L 41.429688 73.757812 L -4.625 57.765625 Z M 15.054688 1.085938 "/></clipPath></defs><g id="5ef9927cdf"><g style="fill:#ffffff;fill-opacity:1;"><g transform="translate(63.391508, 45.692241)"><path style="stroke:none" d="M 2.65625 -21.140625 L 9.234375 -21.140625 C 12.234375 -21.140625 14.410156 -20.710938 15.765625 -19.859375 C 17.117188 -19.003906 17.796875 -17.644531 17.796875 -15.78125 C 17.796875 -14.519531 17.5 -13.484375 16.90625 -12.671875 C 16.3125 -11.867188 15.523438 -11.382812 14.546875 -11.21875 L 14.546875 -11.078125 C 15.878906 -10.773438 16.84375 -10.210938 17.4375 -9.390625 C 18.03125 -8.578125 18.328125 -7.488281 18.328125 -6.125 C 18.328125 -4.195312 17.628906 -2.691406 16.234375 -1.609375 C 14.847656 -0.535156 12.957031 0 10.5625 0 L 2.65625 0 Z M 7.140625 -12.765625 L 9.75 -12.765625 C 10.957031 -12.765625 11.832031 -12.953125 12.375 -13.328125 C 12.925781 -13.703125 13.203125 -14.320312 13.203125 -15.1875 C 13.203125 -16 12.90625 -16.582031 12.3125 -16.9375 C 11.71875 -17.289062 10.78125 -17.46875 9.5 -17.46875 L 7.140625 -17.46875 Z M 7.140625 -9.203125 L 7.140625 -3.703125 L 10.0625 -3.703125 C 11.289062 -3.703125 12.195312 -3.9375 12.78125 -4.40625 C 13.375 -4.882812 13.671875 -5.609375 13.671875 -6.578125 C 13.671875 -8.328125 12.421875 -9.203125 9.921875 -9.203125 Z M 7.140625 -9.203125 "/></g></g><g style="fill:#ffffff;fill-opacity:1;"><g transform="translate(83.284003, 45.692241)"><path style="stroke:none" d="M 9 -13.328125 C 8.070312 -13.328125 7.34375 -13.03125 6.8125 -12.4375 C 6.28125 -11.84375 5.976562 -11.003906 5.90625 -9.921875 L 12.09375 -9.921875 C 12.070312 -11.003906 11.785156 -11.84375 11.234375 -12.4375 C 10.679688 -13.03125 9.9375 -13.328125 9 -13.328125 Z M 9.625 0.296875 C 7.019531 0.296875 4.984375 -0.421875 3.515625 -1.859375 C 2.054688 -3.296875 1.328125 -5.332031 1.328125 -7.96875 C 1.328125 -10.675781 2.003906 -12.769531 3.359375 -14.25 C 4.710938 -15.726562 6.585938 -16.46875 8.984375 -16.46875 C 11.265625 -16.46875 13.039062 -15.816406 14.3125 -14.515625 C 15.582031 -13.210938 16.21875 -11.414062 16.21875 -9.125 L 16.21875 -6.984375 L 5.796875 -6.984375 C 5.847656 -5.734375 6.21875 -4.753906 6.90625 -4.046875 C 7.601562 -3.347656 8.578125 -3 9.828125 -3 C 10.804688 -3 11.726562 -3.097656 12.59375 -3.296875 C 13.457031 -3.492188 14.363281 -3.816406 15.3125 -4.265625 L 15.3125 -0.859375 C 14.539062 -0.472656 13.710938 -0.1875 12.828125 0 C 11.953125 0.195312 10.882812 0.296875 9.625 0.296875 Z M 9.625 0.296875 "/></g></g><g style="fill:#ffffff;fill-opacity:1;"><g transform="translate(100.776676, 45.692241)"><path style="stroke:none" d="M 9 -13.328125 C 8.070312 -13.328125 7.34375 -13.03125 6.8125 -12.4375 C 6.28125 -11.84375 5.976562 -11.003906 5.90625 -9.921875 L 12.09375 -9.921875 C 12.070312 -11.003906 11.785156 -11.84375 11.234375 -12.4375 C 10.679688 -13.03125 9.9375 -13.328125 9 -13.328125 Z M 9.625 0.296875 C 7.019531 0.296875 4.984375 -0.421875 3.515625 -1.859375 C 2.054688 -3.296875 1.328125 -5.332031 1.328125 -7.96875 C 1.328125 -10.675781 2.003906 -12.769531 3.359375 -14.25 C 4.710938 -15.726562 6.585938 -16.46875 8.984375 -16.46875 C 11.265625 -16.46875 13.039062 -15.816406 14.3125 -14.515625 C 15.582031 -13.210938 16.21875 -11.414062 16.21875 -9.125 L 16.21875 -6.984375 L 5.796875 -6.984375 C 5.847656 -5.734375 6.21875 -4.753906 6.90625 -4.046875 C 7.601562 -3.347656 8.578125 -3 9.828125 -3 C 10.804688 -3 11.726562 -3.097656 12.59375 -3.296875 C 13.457031 -3.492188 14.363281 -3.816406 15.3125 -4.265625 L 15.3125 -0.859375 C 14.539062 -0.472656 13.710938 -0.1875 12.828125 0 C 11.953125 0.195312 10.882812 0.296875 9.625 0.296875 Z M 9.625 0.296875 "/></g></g><g style="fill:#ffffff;fill-opacity:1;"><g transform="translate(118.269349, 45.692241)"><path style="stroke:none" d="M 17.234375 0 L 12.828125 0 L 12.828125 -9.4375 C 12.828125 -11.769531 11.957031 -12.9375 10.21875 -12.9375 C 8.988281 -12.9375 8.097656 -12.515625 7.546875 -11.671875 C 6.992188 -10.835938 6.71875 -9.484375 6.71875 -7.609375 L 6.71875 0 L 2.3125 0 L 2.3125 -22.5 L 6.71875 -22.5 L 6.71875 -17.90625 C 6.71875 -17.550781 6.6875 -16.710938 6.625 -15.390625 L 6.515625 -14.09375 L 6.75 -14.09375 C 7.726562 -15.675781 9.289062 -16.46875 11.4375 -16.46875 C 13.332031 -16.46875 14.769531 -15.957031 15.75 -14.9375 C 16.738281 -13.914062 17.234375 -12.453125 17.234375 -10.546875 Z M 17.234375 0 "/></g></g><g style="fill:#ffffff;fill-opacity:1;"><g transform="translate(137.728141, 45.692241)"><path style="stroke:none" d="M 0 -16.15625 L 4.828125 -16.15625 L 7.875 -7.0625 C 8.132812 -6.28125 8.316406 -5.347656 8.421875 -4.265625 L 8.5 -4.265625 C 8.601562 -5.253906 8.8125 -6.1875 9.125 -7.0625 L 12.109375 -16.15625 L 16.84375 -16.15625 L 10 2.0625 C 9.375 3.75 8.476562 5.007812 7.3125 5.84375 C 6.15625 6.6875 4.800781 7.109375 3.25 7.109375 C 2.488281 7.109375 1.742188 7.03125 1.015625 6.875 L 1.015625 3.375 C 1.546875 3.5 2.125 3.5625 2.75 3.5625 C 3.53125 3.5625 4.210938 3.320312 4.796875 2.84375 C 5.378906 2.363281 5.832031 1.640625 6.15625 0.671875 L 6.421875 -0.109375 Z M 0 -16.15625 "/></g></g><g style="fill:#ffffff;fill-opacity:1;"><g transform="translate(154.57027, 45.692241)"><path style="stroke:none" d="M 11.1875 0.296875 C 9.289062 0.296875 7.800781 -0.394531 6.71875 -1.78125 L 6.484375 -1.78125 C 6.640625 -0.425781 6.71875 0.351562 6.71875 0.5625 L 6.71875 7.109375 L 2.3125 7.109375 L 2.3125 -16.15625 L 5.90625 -16.15625 L 6.515625 -14.0625 L 6.71875 -14.0625 C 7.75 -15.664062 9.28125 -16.46875 11.3125 -16.46875 C 13.21875 -16.46875 14.707031 -15.726562 15.78125 -14.25 C 16.863281 -12.78125 17.40625 -10.734375 17.40625 -8.109375 C 17.40625 -6.378906 17.148438 -4.878906 16.640625 -3.609375 C 16.140625 -2.335938 15.421875 -1.367188 14.484375 -0.703125 C 13.546875 -0.0351562 12.445312 0.296875 11.1875 0.296875 Z M 9.890625 -12.9375 C 8.796875 -12.9375 8 -12.601562 7.5 -11.9375 C 7 -11.269531 6.738281 -10.160156 6.71875 -8.609375 L 6.71875 -8.140625 C 6.71875 -6.398438 6.972656 -5.15625 7.484375 -4.40625 C 8.003906 -3.65625 8.828125 -3.28125 9.953125 -3.28125 C 11.921875 -3.28125 12.90625 -4.910156 12.90625 -8.171875 C 12.90625 -9.753906 12.660156 -10.941406 12.171875 -11.734375 C 11.691406 -12.535156 10.929688 -12.9375 9.890625 -12.9375 Z M 9.890625 -12.9375 "/></g></g><g style="fill:#ffffff;fill-opacity:1;"><g transform="translate(173.306224, 45.692241)"><path style="stroke:none" d="M 9 -13.328125 C 8.070312 -13.328125 7.34375 -13.03125 6.8125 -12.4375 C 6.28125 -11.84375 5.976562 -11.003906 5.90625 -9.921875 L 12.09375 -9.921875 C 12.070312 -11.003906 11.785156 -11.84375 11.234375 -12.4375 C 10.679688 -13.03125 9.9375 -13.328125 9 -13.328125 Z M 9.625 0.296875 C 7.019531 0.296875 4.984375 -0.421875 3.515625 -1.859375 C 2.054688 -3.296875 1.328125 -5.332031 1.328125 -7.96875 C 1.328125 -10.675781 2.003906 -12.769531 3.359375 -14.25 C 4.710938 -15.726562 6.585938 -16.46875 8.984375 -16.46875 C 11.265625 -16.46875 13.039062 -15.816406 14.3125 -14.515625 C 15.582031 -13.210938 16.21875 -11.414062 16.21875 -9.125 L 16.21875 -6.984375 L 5.796875 -6.984375 C 5.847656 -5.734375 6.21875 -4.753906 6.90625 -4.046875 C 7.601562 -3.347656 8.578125 -3 9.828125 -3 C 10.804688 -3 11.726562 -3.097656 12.59375 -3.296875 C 13.457031 -3.492188 14.363281 -3.816406 15.3125 -4.265625 L 15.3125 -0.859375 C 14.539062 -0.472656 13.710938 -0.1875 12.828125 0 C 11.953125 0.195312 10.882812 0.296875 9.625 0.296875 Z M 9.625 0.296875 "/></g></g><g clip-rule="nonzero" clip-path="url(#b35973e5a3)"><g clip-rule="nonzero" clip-path="url(#e51cbf27fc)"><g clip-rule="nonzero" clip-path="url(#eababc83d4)"><path style=" stroke:none;fill-rule:nonzero;fill:#082097;fill-opacity:1;" d="M 19.699219 40.777344 C 20.128906 39.539062 19.421875 38.160156 18.125 37.707031 L 5.203125 33.222656 L 35.832031 9.710938 L 27.605469 33.398438 L 42.917969 38.714844 L 12.289062 62.238281 Z M 19.699219 40.777344 "/></g></g></g><g clip-rule="nonzero" clip-path="url(#e4bb241c95)"><g clip-rule="nonzero" clip-path="url(#736d35171d)"><g clip-rule="nonzero" clip-path="url(#43d0925702)"><path style=" stroke:none;fill-rule:nonzero;fill:#ffffff;fill-opacity:1;" d="M 52.378906 41.378906 C 52.3125 40.933594 51.996094 40.546875 51.558594 40.394531 L 36.296875 35.097656 C 35.648438 34.871094 35.285156 34.203125 35.488281 33.613281 L 42.902344 12.15625 C 43.125 11.507812 42.792969 10.796875 42.132812 10.566406 L 36.242188 8.523438 C 36.148438 8.488281 36.050781 8.46875 35.960938 8.464844 C 35.859375 8.453125 35.75 8.457031 35.652344 8.476562 C 35.558594 8.484375 35.453125 8.511719 35.347656 8.554688 C 35.269531 8.59375 35.171875 8.640625 35.085938 8.703125 C 35.066406 8.722656 35.050781 8.730469 35.03125 8.75 L 4.453125 32.234375 C 4.09375 32.507812 3.917969 32.972656 3.988281 33.421875 C 4.058594 33.867188 4.371094 34.253906 4.808594 34.40625 L 17.714844 38.886719 C 18.363281 39.113281 18.726562 39.777344 18.523438 40.367188 L 11.109375 61.828125 C 11.078125 61.921875 11.058594 62.019531 11.046875 62.125 C 11.042969 62.214844 11.046875 62.320312 11.050781 62.414062 C 11.0625 62.417969 11.058594 62.429688 11.058594 62.429688 C 11.074219 62.542969 11.113281 62.660156 11.15625 62.753906 C 11.199219 62.863281 11.261719 62.949219 11.335938 63.042969 C 11.402344 63.117188 11.480469 63.195312 11.578125 63.257812 C 11.671875 63.328125 11.773438 63.378906 11.878906 63.414062 L 20.125 66.277344 C 20.511719 66.414062 20.960938 66.34375 21.285156 66.085938 L 51.914062 42.566406 C 52.273438 42.292969 52.449219 41.824219 52.378906 41.378906 Z M 14.816406 58.71875 L 20.878906 41.183594 C 21.535156 39.289062 20.476562 37.207031 18.535156 36.53125 L 7.804688 32.804688 L 33.285156 13.238281 L 26.429688 32.988281 C 26.199219 33.648438 26.550781 34.351562 27.199219 34.578125 L 40.320312 39.132812 Z M 14.816406 58.71875 "/></g></g></g></g></svg>