<svg xmlns="http://www.w3.org/2000/svg" xmlns:xlink="http://www.w3.org/1999/xlink" width="256" zoomAndPan="magnify" viewBox="0 0 192 74.999997" height="100" preserveAspectRatio="xMidYMid meet" version="1.2"><defs><clipPath id="515444d0c2"><path d="M 3 9 L 42 9 L 42 63 L 3 63 Z M 3 9 "/></clipPath><clipPath id="294912bcff"><path d="M 13.515625 1.085938 L 59.679688 17.113281 L 39.941406 73.96875 L -6.222656 57.941406 Z M 13.515625 1.085938 "/></clipPath><clipPath id="cc0f56d166"><path d="M 13.515625 1.085938 L 59.679688 17.113281 L 39.941406 73.96875 L -6.222656 57.941406 Z M 13.515625 1.085938 "/></clipPath><clipPath id="5aa26b3451"><path d="M 2 8 L 51 8 L 51 67 L 2 67 Z M 2 8 "/></clipPath><clipPath id="5002543dfa"><path d="M 13.515625 1.085938 L 59.679688 17.113281 L 39.941406 73.96875 L -6.222656 57.941406 Z M 13.515625 1.085938 "/></clipPath><clipPath id="01c7294ac5"><path d="M 13.515625 1.085938 L 59.679688 17.113281 L 39.941406 73.96875 L -6.222656 57.941406 Z M 13.515625 1.085938 "/></clipPath><clipPath id="a5eaf250a4"><path d="M 33 13 L 37 13 L 37 19 L 33 19 Z M 33 13 "/></clipPath><clipPath id="05443b0c6b"><path d="M 33.246094 18.261719 L 35.082031 13.226562 L 36.988281 13.921875 L 35.152344 18.957031 Z M 33.246094 18.261719 "/></clipPath><clipPath id="f865b368eb"><path d="M 33.59375 17.308594 L 34.730469 14.183594 C 34.921875 13.65625 35.507812 13.386719 36.03125 13.578125 C 36.558594 13.769531 36.832031 14.351562 36.640625 14.878906 L 35.5 18.003906 C 35.308594 18.53125 34.726562 18.800781 34.199219 18.609375 C 33.671875 18.417969 33.402344 17.835938 33.59375 17.308594 Z M 33.59375 17.308594 "/></clipPath></defs><g id="1fc81488e3"><g style="fill:#082097;fill-opacity:1;"><g transform="translate(54.058535, 45.003968)"><path style="stroke:none" d="M 2.828125 -22.4375 L 9.796875 -22.4375 C 12.984375 -22.4375 15.296875 -21.984375 16.734375 -21.078125 C 18.171875 -20.171875 18.890625 -18.726562 18.890625 -16.75 C 18.890625 -15.414062 18.570312 -14.316406 17.9375 -13.453125 C 17.3125 -12.597656 16.476562 -12.082031 15.4375 -11.90625 L 15.4375 -11.75 C 16.851562 -11.4375 17.875 -10.84375 18.5 -9.96875 C 19.132812 -9.101562 19.453125 -7.945312 19.453125 -6.5 C 19.453125 -4.457031 18.710938 -2.863281 17.234375 -1.71875 C 15.753906 -0.570312 13.75 0 11.21875 0 L 2.828125 0 Z M 7.578125 -13.546875 L 10.34375 -13.546875 C 11.632812 -13.546875 12.566406 -13.742188 13.140625 -14.140625 C 13.722656 -14.546875 14.015625 -15.207031 14.015625 -16.125 C 14.015625 -16.976562 13.695312 -17.59375 13.0625 -17.96875 C 12.4375 -18.34375 11.441406 -18.53125 10.078125 -18.53125 L 7.578125 -18.53125 Z M 7.578125 -9.765625 L 7.578125 -3.921875 L 10.671875 -3.921875 C 11.984375 -3.921875 12.953125 -4.171875 13.578125 -4.671875 C 14.203125 -5.179688 14.515625 -5.953125 14.515625 -6.984375 C 14.515625 -8.835938 13.1875 -9.765625 10.53125 -9.765625 Z M 7.578125 -9.765625 "/></g></g><g style="fill:#082097;fill-opacity:1;"><g transform="translate(75.167598, 45.003968)"><path style="stroke:none" d="M 9.5625 -14.140625 C 8.5625 -14.140625 7.78125 -13.828125 7.21875 -13.203125 C 6.65625 -12.578125 6.335938 -11.6875 6.265625 -10.53125 L 12.828125 -10.53125 C 12.804688 -11.6875 12.503906 -12.578125 11.921875 -13.203125 C 11.335938 -13.828125 10.550781 -14.140625 9.5625 -14.140625 Z M 10.21875 0.3125 C 7.457031 0.3125 5.296875 -0.445312 3.734375 -1.96875 C 2.179688 -3.5 1.40625 -5.660156 1.40625 -8.453125 C 1.40625 -11.328125 2.125 -13.546875 3.5625 -15.109375 C 5 -16.679688 6.988281 -17.46875 9.53125 -17.46875 C 11.945312 -17.46875 13.832031 -16.773438 15.1875 -15.390625 C 16.539062 -14.015625 17.21875 -12.113281 17.21875 -9.6875 L 17.21875 -7.40625 L 6.15625 -7.40625 C 6.207031 -6.082031 6.597656 -5.046875 7.328125 -4.296875 C 8.066406 -3.546875 9.101562 -3.171875 10.4375 -3.171875 C 11.46875 -3.171875 12.441406 -3.28125 13.359375 -3.5 C 14.285156 -3.71875 15.25 -4.0625 16.25 -4.53125 L 16.25 -0.90625 C 15.425781 -0.5 14.550781 -0.195312 13.625 0 C 12.695312 0.207031 11.5625 0.3125 10.21875 0.3125 Z M 10.21875 0.3125 "/></g></g><g style="fill:#082097;fill-opacity:1;"><g transform="translate(93.730072, 45.003968)"><path style="stroke:none" d="M 9.5625 -14.140625 C 8.5625 -14.140625 7.78125 -13.828125 7.21875 -13.203125 C 6.65625 -12.578125 6.335938 -11.6875 6.265625 -10.53125 L 12.828125 -10.53125 C 12.804688 -11.6875 12.503906 -12.578125 11.921875 -13.203125 C 11.335938 -13.828125 10.550781 -14.140625 9.5625 -14.140625 Z M 10.21875 0.3125 C 7.457031 0.3125 5.296875 -0.445312 3.734375 -1.96875 C 2.179688 -3.5 1.40625 -5.660156 1.40625 -8.453125 C 1.40625 -11.328125 2.125 -13.546875 3.5625 -15.109375 C 5 -16.679688 6.988281 -17.46875 9.53125 -17.46875 C 11.945312 -17.46875 13.832031 -16.773438 15.1875 -15.390625 C 16.539062 -14.015625 17.21875 -12.113281 17.21875 -9.6875 L 17.21875 -7.40625 L 6.15625 -7.40625 C 6.207031 -6.082031 6.597656 -5.046875 7.328125 -4.296875 C 8.066406 -3.546875 9.101562 -3.171875 10.4375 -3.171875 C 11.46875 -3.171875 12.441406 -3.28125 13.359375 -3.5 C 14.285156 -3.71875 15.25 -4.0625 16.25 -4.53125 L 16.25 -0.90625 C 15.425781 -0.5 14.550781 -0.195312 13.625 0 C 12.695312 0.207031 11.5625 0.3125 10.21875 0.3125 Z M 10.21875 0.3125 "/></g></g><g style="fill:#082097;fill-opacity:1;"><g transform="translate(112.292547, 45.003968)"><path style="stroke:none" d="M 18.28125 0 L 13.609375 0 L 13.609375 -10.015625 C 13.609375 -12.492188 12.6875 -13.734375 10.84375 -13.734375 C 9.539062 -13.734375 8.597656 -13.285156 8.015625 -12.390625 C 7.429688 -11.503906 7.140625 -10.0625 7.140625 -8.0625 L 7.140625 0 L 2.453125 0 L 2.453125 -23.875 L 7.140625 -23.875 L 7.140625 -19.015625 C 7.140625 -18.628906 7.101562 -17.738281 7.03125 -16.34375 L 6.921875 -14.953125 L 7.171875 -14.953125 C 8.210938 -16.628906 9.867188 -17.46875 12.140625 -17.46875 C 14.148438 -17.46875 15.675781 -16.925781 16.71875 -15.84375 C 17.757812 -14.757812 18.28125 -13.207031 18.28125 -11.1875 Z M 18.28125 0 "/></g></g><g style="fill:#082097;fill-opacity:1;"><g transform="translate(132.941383, 45.003968)"><path style="stroke:none" d="M 0 -17.15625 L 5.125 -17.15625 L 8.359375 -7.5 C 8.640625 -6.664062 8.828125 -5.675781 8.921875 -4.53125 L 9.015625 -4.53125 C 9.128906 -5.582031 9.351562 -6.570312 9.6875 -7.5 L 12.859375 -17.15625 L 17.875 -17.15625 L 10.609375 2.1875 C 9.953125 3.976562 9.003906 5.316406 7.765625 6.203125 C 6.535156 7.097656 5.097656 7.546875 3.453125 7.546875 C 2.640625 7.546875 1.847656 7.457031 1.078125 7.28125 L 1.078125 3.578125 C 1.640625 3.710938 2.253906 3.78125 2.921875 3.78125 C 3.742188 3.78125 4.460938 3.523438 5.078125 3.015625 C 5.703125 2.503906 6.1875 1.738281 6.53125 0.71875 L 6.8125 -0.125 Z M 0 -17.15625 "/></g></g><g style="fill:#082097;fill-opacity:1;"><g transform="translate(150.813528, 45.003968)"><path style="stroke:none" d="M 11.875 0.3125 C 9.863281 0.3125 8.285156 -0.421875 7.140625 -1.890625 L 6.890625 -1.890625 C 7.054688 -0.453125 7.140625 0.375 7.140625 0.59375 L 7.140625 7.546875 L 2.453125 7.546875 L 2.453125 -17.15625 L 6.265625 -17.15625 L 6.921875 -14.921875 L 7.140625 -14.921875 C 8.234375 -16.617188 9.851562 -17.46875 12 -17.46875 C 14.019531 -17.46875 15.601562 -16.6875 16.75 -15.125 C 17.894531 -13.5625 18.46875 -11.390625 18.46875 -8.609375 C 18.46875 -6.773438 18.195312 -5.179688 17.65625 -3.828125 C 17.125 -2.484375 16.363281 -1.457031 15.375 -0.75 C 14.382812 -0.0390625 13.21875 0.3125 11.875 0.3125 Z M 10.5 -13.734375 C 9.34375 -13.734375 8.5 -13.375 7.96875 -12.65625 C 7.4375 -11.945312 7.160156 -10.773438 7.140625 -9.140625 L 7.140625 -8.640625 C 7.140625 -6.796875 7.410156 -5.472656 7.953125 -4.671875 C 8.503906 -3.878906 9.375 -3.484375 10.5625 -3.484375 C 12.65625 -3.484375 13.703125 -5.210938 13.703125 -8.671875 C 13.703125 -10.359375 13.441406 -11.625 12.921875 -12.46875 C 12.410156 -13.3125 11.601562 -13.734375 10.5 -13.734375 Z M 10.5 -13.734375 "/></g></g><g style="fill:#082097;fill-opacity:1;"><g transform="translate(170.695319, 45.003968)"><path style="stroke:none" d="M 9.5625 -14.140625 C 8.5625 -14.140625 7.78125 -13.828125 7.21875 -13.203125 C 6.65625 -12.578125 6.335938 -11.6875 6.265625 -10.53125 L 12.828125 -10.53125 C 12.804688 -11.6875 12.503906 -12.578125 11.921875 -13.203125 C 11.335938 -13.828125 10.550781 -14.140625 9.5625 -14.140625 Z M 10.21875 0.3125 C 7.457031 0.3125 5.296875 -0.445312 3.734375 -1.96875 C 2.179688 -3.5 1.40625 -5.660156 1.40625 -8.453125 C 1.40625 -11.328125 2.125 -13.546875 3.5625 -15.109375 C 5 -16.679688 6.988281 -17.46875 9.53125 -17.46875 C 11.945312 -17.46875 13.832031 -16.773438 15.1875 -15.390625 C 16.539062 -14.015625 17.21875 -12.113281 17.21875 -9.6875 L 17.21875 -7.40625 L 6.15625 -7.40625 C 6.207031 -6.082031 6.597656 -5.046875 7.328125 -4.296875 C 8.066406 -3.546875 9.101562 -3.171875 10.4375 -3.171875 C 11.46875 -3.171875 12.441406 -3.28125 13.359375 -3.5 C 14.285156 -3.71875 15.25 -4.0625 16.25 -4.53125 L 16.25 -0.90625 C 15.425781 -0.5 14.550781 -0.195312 13.625 0 C 12.695312 0.207031 11.5625 0.3125 10.21875 0.3125 Z M 10.21875 0.3125 "/></g></g><g clip-rule="nonzero" clip-path="url(#515444d0c2)"><g clip-rule="nonzero" clip-path="url(#294912bcff)"><g clip-rule="nonzero" clip-path="url(#cc0f56d166)"><path style=" stroke:none;fill-rule:nonzero;fill:#ffffff;fill-opacity:1;" d="M 18.167969 40.863281 C 18.601562 39.625 17.890625 38.238281 16.589844 37.789062 L 3.644531 33.292969 L 34.335938 9.730469 L 26.09375 33.46875 L 41.4375 38.796875 L 10.742188 62.367188 Z M 18.167969 40.863281 "/></g></g></g><g clip-rule="nonzero" clip-path="url(#5aa26b3451)"><g clip-rule="nonzero" clip-path="url(#5002543dfa)"><g clip-rule="nonzero" clip-path="url(#01c7294ac5)"><path style=" stroke:none;fill-rule:nonzero;fill:#0d19b2;fill-opacity:1;" d="M 50.921875 41.46875 C 50.851562 41.019531 50.535156 40.632812 50.097656 40.480469 L 34.800781 35.167969 C 34.152344 34.945312 33.789062 34.277344 33.992188 33.683594 L 41.421875 12.179688 C 41.644531 11.53125 41.3125 10.816406 40.652344 10.589844 L 34.75 8.539062 C 34.652344 8.507812 34.554688 8.484375 34.464844 8.480469 C 34.363281 8.472656 34.253906 8.472656 34.15625 8.492188 C 34.0625 8.5 33.957031 8.53125 33.851562 8.570312 C 33.773438 8.609375 33.675781 8.65625 33.589844 8.71875 C 33.570312 8.738281 33.550781 8.746094 33.53125 8.765625 L 2.886719 32.304688 C 2.53125 32.574219 2.355469 33.042969 2.421875 33.492188 C 2.492188 33.9375 2.808594 34.324219 3.246094 34.476562 L 16.183594 38.96875 C 16.832031 39.195312 17.195312 39.863281 16.988281 40.453125 L 9.5625 61.960938 C 9.527344 62.054688 9.507812 62.152344 9.5 62.253906 C 9.492188 62.347656 9.496094 62.453125 9.503906 62.546875 C 9.515625 62.550781 9.511719 62.5625 9.511719 62.5625 C 9.523438 62.675781 9.5625 62.792969 9.609375 62.886719 C 9.652344 62.996094 9.714844 63.082031 9.789062 63.175781 C 9.855469 63.25 9.933594 63.332031 10.03125 63.390625 C 10.125 63.464844 10.226562 63.511719 10.332031 63.550781 L 18.59375 66.417969 C 18.984375 66.554688 19.433594 66.484375 19.757812 66.226562 L 50.453125 42.65625 C 50.8125 42.382812 50.988281 41.914062 50.921875 41.46875 Z M 13.273438 58.84375 L 19.351562 41.273438 C 20.007812 39.371094 18.949219 37.285156 17 36.609375 L 6.25 32.875 L 31.785156 13.265625 L 24.914062 33.058594 C 24.683594 33.71875 25.035156 34.421875 25.683594 34.648438 L 38.832031 39.214844 L 13.277344 58.84375 Z M 13.273438 58.84375 "/></g></g></g><g clip-rule="nonzero" clip-path="url(#a5eaf250a4)"><g clip-rule="nonzero" clip-path="url(#05443b0c6b)"><g clip-rule="nonzero" clip-path="url(#f865b368eb)"><path style=" stroke:none;fill-rule:nonzero;fill:#0d19b2;fill-opacity:1;" d="M 33.246094 18.261719 L 35.078125 13.234375 L 36.984375 13.929688 L 35.152344 18.957031 Z M 33.246094 18.261719 "/></g></g></g></g></svg>